PathFileType	4	(X/Y/Z)	C:/Users/opensim2020/Desktop/walking_exp_matlab/subject03_walking15_straight_03.trc																																																																																																																																											
DataRate	CameraRate	NumFrames	NumMarkers	Units	OrigDataRate	OrigDataStartFrame	OrigNumFrames																																																																																																																																							
100	100	7	47	mm	100	1769	220																																																																																																																																							
Frame#	Time	LFHD			RFHD			LBHD			RBHD			C7			T10			CLAV			STRN			RBAK			LSHO			LUPA			LELB			LFRM			LWRA			LWRB			LFIN			RSHO			RUPA			RELB			RFRM			RWRA			RWRB			RFIN			LASI			RASI			LPSI			RPSI			LTHI			LKNE			LTIB			LANK			LHEE			LTOE			RTHI			RKNE			RTIB			RANK			RHEE			RTOE			*39			*40			*41			*42			*43			*44			*45			*46		
		X1	Y1	Z1	X2	Y2	Z2	X3	Y3	Z3	X4	Y4	Z4	X5	Y5	Z5	X6	Y6	Z6	X7	Y7	Z7	X8	Y8	Z8	X9	Y9	Z9	X10	Y10	Z10	X11	Y11	Z11	X12	Y12	Z12	X13	Y13	Z13	X14	Y14	Z14	X15	Y15	Z15	X16	Y16	Z16	X17	Y17	Z17	X18	Y18	Z18	X19	Y19	Z19	X20	Y20	Z20	X21	Y21	Z21	X22	Y22	Z22	X23	Y23	Z23	X24	Y24	Z24	X25	Y25	Z25	X26	Y26	Z26	X27	Y27	Z27	X28	Y28	Z28	X29	Y29	Z29	X30	Y30	Z30	X31	Y31	Z31	X32	Y32	Z32	X33	Y33	Z33	X34	Y34	Z34	X35	Y35	Z35	X36	Y36	Z36	X37	Y37	Z37	X38	Y38	Z38	X39	Y39	Z39	X40	Y40	Z40	X41	Y41	Z41	X42	Y42	Z42	X43	Y43	Z43	X44	Y44	Z44	X45	Y45	Z45	X46	Y46	Z46	X47	Y47	Z47
																																																																																																																																														
193	1.92	1030.69153	1607.36829	1291.7146	1048.82751	1625.15637	1422.73352	922.33429	1532.30029	1320.5249	944.58984	1550.18323	1447.75757	933.69458	1389.7074	1382.11841	926.46844	1078.74365	1391.94861	1061.26855	1324.19031	1372.15637	1119.58496	1163.40417	1370.74231	907.34357	1216.60376	1488.38623	997.84747	1354.31787	1220.13928	957.46368	1155.97485	1160.94629	942.93121	1032.90247	1154.44006	930.2699	902.05023	1154.96533	905.30481	783.34375	1185.15698	890.05762	796.46881	1130.89844	847.45709	718.12402	1149.40137	1029.73743	1351.48157	1534.06165	1090.93518	1147.2334	1621.25818	1143.91174	1048.68726	1632.30688	1220.77527	938.70679	1619.44995	1270.34668	859.7677	1567.82642	1275.12305	856.75507	1622.0824	1324.88464	807.68756	1595.16846	1103.25439	925.71039	1280.96716	1093.02466	925.81909	1517.86035	938.58899	935.80847	1320.88208	934.82178	951.99762	1469.47705	1128.45801	627.99951	1236.92981	1197.98193	471.92178	1281.91614	1204.19629	272.2215	1283.61389	1251.39331	68.79786	1321.09473	1220.51318	30.14526	1362.56409	1403.01379	58.117	1333.59363	989.63275	642.01849	1572.22827	959.91736	461.97733	1551.6886	832.11749	311.5116	1562.03589	702.43652	134.81763	1526.42395	649.51385	125.24274	1476.87561	810.22369	36.16811	1510.91626	943.37793	1648.21191	1353.85669	NaN	NaN	NaN	NaN	NaN	NaN	NaN	NaN	NaN	NaN	NaN	NaN	NaN	NaN	NaN	NaN	NaN	NaN	NaN	NaN	NaN
194	1.93	1043.56958	1607.60303	1288.6405	1061.66724	1625.45801	1419.71594	935.63306	1532.03271	1317.47668	957.7934	1549.93152	1444.76318	946.85004	1389.52869	1378.55151	943.75677	1077.13647	1390.71362	1074.96399	1324.48108	1369.29565	1133.88318	1164.00635	1368.53406	920.80652	1216.51294	1484.79468	1012.39935	1354.0813	1216.95068	972.526	1155.47815	1157.98792	957.20428	1032.51025	1151.96277	943.38184	901.77289	1152.66516	916.45569	783.00513	1184.14246	902.55426	796.26233	1128.48901	856.29565	719.7171	1147.9668	1042.35852	1351.88501	1531.05017	1103.63818	1147.68323	1618.51282	1156.45361	1049.13379	1629.81982	1233.36401	939.26245	1617.00989	1283.02124	860.46698	1565.21301	1287.89624	857.4472	1619.62195	1338.23987	809.72931	1592.13953	1118.59045	926.48517	1278.99976	1111.31335	926.68707	1516.02271	954.06146	936.39221	1318.96631	950.08087	951.36945	1467.84351	1147.84521	629.56464	1236.13721	1212.51013	472.33072	1280.26709	1214.66919	272.43805	1282.89404	1257.08887	68.55495	1319.76099	1223.58252	32.40042	1361.15076	1408.08472	49.82399	1336.53467	1007.05853	640.89783	1571.54138	979.3797	460.60825	1552.54309	846.32935	314.17108	1561.93213	710.83459	142.60583	1526.01355	658.65417	136.12079	1475.89246	811.23889	35.73346	1510.40417	956.04218	1647.7312	1350.76489	NaN	NaN	NaN	NaN	NaN	NaN	NaN	NaN	NaN	NaN	NaN	NaN	NaN	NaN	NaN	NaN	NaN	NaN	NaN	NaN	NaN
195	1.94	1056.45959	1608.16638	1285.59998	1074.54944	1626.11743	1416.60754	948.7016	1532.33276	1314.47986	970.88458	1550.3186	1441.70947	960.22144	1389.45044	1374.57507	956.46008	1078.29028	1388.15295	1088.53772	1325.12842	1366.51453	1148.02808	1164.84619	1366.35413	934.13049	1216.41736	1481.13623	1026.78284	1354.04211	1213.70874	988.29572	1155.10168	1155.08374	972.07013	1032.18018	1149.50391	957.39648	901.50238	1150.45349	929.59857	782.9848	1181.87476	916.36658	796.06836	1126.03003	866.9408	721.08405	1146.10962	1054.77612	1352.59619	1528.15625	1116.15967	1148.25745	1615.59595	1168.78064	1049.61829	1627.23364	1245.6626	939.7525	1614.72742	1295.2854	861.12622	1562.97156	1299.93823	857.75305	1617.30884	1350.65942	811.10742	1589.56384	1133.68811	927.35358	1276.98206	1125.81238	926.53882	1513.55627	969.48468	937.14099	1316.97388	965.55542	951.19507	1466.29358	1164.3927	632.44141	1233.42859	1226.34717	473.08011	1278.32312	1226.20215	273.63556	1280.12622	1262.39209	67.8834	1318.1366	1226.33203	34.25484	1358.94617	1412.56921	43.41613	1339.09827	1025.51465	639.72412	1570.3783	1000.23743	459.26025	1553.48083	862.2984	317.18442	1561.8324	721.11487	151.11566	1525.18408	670.40863	147.81276	1473.70593	812.87726	35.80474	1510.11926	968.58972	1648.5282	1348.01697	NaN	NaN	NaN	NaN	NaN	NaN	NaN	NaN	NaN	NaN	NaN	NaN	NaN	NaN	NaN	NaN	NaN	NaN	NaN	NaN	NaN
196	1.95	1069.43787	1608.86133	1282.47559	1087.46216	1626.81091	1413.48669	961.7937	1533.00159	1311.30188	983.8399	1551.03674	1438.52087	973.7276	1389.7832	1370.85559	971.0451	1078.10754	1386.59167	1102.08032	1326.00708	1363.82373	1162.14929	1165.85156	1364.15234	947.40808	1216.47986	1477.59436	1041.16919	1354.16919	1210.58142	1004.2569	1154.87256	1152.29138	987.41205	1032.10828	1147.0863	972.55347	901.56866	1148.07178	944.08936	782.98364	1179.66382	931.47302	795.78455	1123.92334	879.80908	722.47662	1143.33801	1067.09583	1353.62695	1525.25244	1128.48315	1149.00806	1612.62158	1180.86719	1050.23669	1624.47668	1257.26489	939.92114	1612.26855	1306.74268	861.23175	1560.72229	1311.3302	857.91553	1615.08716	1362.1571	811.65588	1587.4187	1148.56897	928.48932	1274.86523	1141.36584	926.97955	1511.06641	984.17743	938.39343	1315.005	980.91949	951.2124	1464.77539	1178.08252	634.57385	1230.23047	1240.74097	474.90085	1276.47717	1237.26831	274.76544	1277.87646	1265.58435	68.05373	1318.08447	1227.42725	34.98572	1357.6709	1415.75671	40.36857	1339.61035	1044.64417	638.55151	1569.6178	1023.19574	457.57687	1554.92407	880.13525	320.50583	1561.86536	733.81628	159.93167	1523.79004	685.27783	159.89003	1470.68408	814.84467	35.91448	1509.53687	981.4903	1649.07764	1344.77222	NaN	NaN	NaN	NaN	NaN	NaN	NaN	NaN	NaN	NaN	NaN	NaN	NaN	NaN	NaN	NaN	NaN	NaN	NaN	NaN	NaN
197	1.96	1082.36609	1609.49731	1279.28882	1100.3689	1627.37817	1410.41028	974.74469	1533.78833	1308.04407	996.68799	1551.69714	1435.2688	987.38812	1390.40552	1367.40198	984.65631	1078.43262	1383.9967	1115.60645	1326.80566	1361.12207	1176.16602	1166.89624	1361.9823	960.68683	1216.9187	1474.2655	1055.50354	1354.47217	1207.58643	1020.3067	1154.85938	1149.65454	1003.00012	1032.2074	1144.69482	988.40137	901.62524	1145.95349	960.61896	783.4455	1176.14185	947.90637	795.90637	1121.23816	894.55182	723.4657	1140.52136	1079.71277	1354.8219	1522.36609	1140.35046	1149.69836	1609.39441	1192.56836	1050.98047	1621.62537	1268.55261	940.37903	1610.01245	1317.77209	861.27258	1558.63184	1322.09009	857.94635	1613.07605	1372.76318	811.43848	1585.61401	1162.97046	930.03699	1272.9834	1156.5625	927.53204	1508.51514	999.27289	939.82251	1313.3905	995.87598	951.33966	1463.34521	1189.86816	635.55615	1227.50391	1254.69885	476.25092	1274.77954	1247.45422	275.19696	1275.58423	1266.20447	68.35322	1318.9447	1228.11511	35.42109	1357.92798	1417.30298	39.1345	1338.86536	1064.68274	637.12061	1568.7135	1047.51733	455.94193	1556.31104	900.05457	323.7832	1561.76941	749.27637	168.36931	1522.50574	703.20276	172.1263	1467.6051	816.60358	35.95132	1508.63232	994.51306	1649.46667	1341.37524	NaN	NaN	NaN	NaN	NaN	NaN	NaN	NaN	NaN	NaN	NaN	NaN	NaN	NaN	NaN	NaN	NaN	NaN	NaN	NaN	NaN
198	1.97	1095.32971	1610.06177	1276.15576	1113.26172	1627.87646	1407.33826	987.74438	1534.37073	1304.72595	1009.5174	1552.21118	1432.05945	1000.87817	1390.73901	1364.05151	998.18744	1079.07068	1381.20264	1129.12134	1327.52515	1358.4751	1189.99756	1167.80518	1359.96436	973.91449	1217.53784	1471.28455	1069.74072	1354.90942	1204.80054	1036.2782	1155.05212	1146.64441	1019.15607	1032.31848	1142.15112	1005.21869	901.80188	1143.6167	977.73425	783.42273	1173.78589	965.69861	795.82739	1118.67944	910.98584	723.8988	1137.76587	1092.28101	1356.23657	1519.48718	1152.30872	1150.85547	1606.73962	1203.94482	1051.75952	1618.81689	1279.32544	940.63812	1607.80432	1328.30676	861.12317	1556.78857	1332.31946	857.81097	1611.22339	1382.69348	810.50854	1584.19104	1177.15894	931.84369	1271.00793	1171.25549	928.33563	1505.77466	1013.12524	941.565	1311.77832	1010.41998	951.40717	1461.97559	1200.96765	635.85028	1225.58435	1267.81812	477.06583	1273.34412	1255.43652	275.51556	1274.42651	1267.5011	68.57536	1319.28589	1228.76978	35.79197	1357.93628	1418.8739	38.28689	1340.44519	1085.26367	635.50879	1568.16541	1072.78979	454.10788	1556.8429	921.86359	326.79755	1561.49475	767.55414	175.58066	1521.94641	723.99945	184.25229	1465.43628	817.76074	36.11431	1507.11938	1007.85809	1650.4231	1338.30859	NaN	NaN	NaN	NaN	NaN	NaN	NaN	NaN	NaN	NaN	NaN	NaN	NaN	NaN	NaN	NaN	NaN	NaN	NaN	NaN	NaN
199	1.98	1108.43872	1610.48364	1273.1377	1126.08911	1628.26819	1404.27661	1000.64203	1534.77637	1301.53857	1022.29889	1552.60596	1428.85437	1014.21478	1391.02075	1360.97815	1011.83484	1079.80249	1378.82507	1142.6803	1328.09863	1355.94958	1203.72583	1168.54614	1358.01086	987.14227	1218.11072	1468.45886	1084.21533	1355.40576	1202.58191	1052.07434	1155.25439	1143.93176	1035.6333	1032.47766	1139.53918	1022.88141	901.94397	1141.12	995.37427	782.88959	1172.401	984.48993	795.56683	1115.96997	929.30652	723.80511	1134.47742	1104.97632	1357.55396	1516.59863	1163.82141	1151.77917	1603.9303	1215.0675	1052.45361	1615.99939	1289.74011	940.72601	1605.68005	1338.43079	860.65637	1555.05542	1342.07532	857.45398	1609.61121	1391.88391	808.90082	1583.04761	1190.58545	933.42987	1268.92639	1185.521	929.06805	1503.14893	1026.64478	943.25885	1310.55872	1024.48083	951.41113	1460.69373	1212.86499	636.1026	1224.06897	1278.79822	476.86783	1271.59448	1261.98486	275.78836	1273.40295	1268.16333	68.96889	1319.3562	1228.85107	35.89106	1357.95654	1419.41003	37.56337	1340.64575	1106.3064	633.43158	1567.0354	1098.71021	452.29553	1556.46509	945.24933	329.4418	1560.59204	787.70435	180.86671	1522.3114	746.65723	196.53006	1465.03955	822.38702	38.91837	1505.74561	1020.90204	1650.89331	1335.08215	NaN	NaN	NaN	NaN	NaN	NaN	NaN	NaN	NaN	NaN	NaN	NaN	NaN	NaN	NaN	NaN	NaN	NaN	NaN	NaN	NaN
